G04*
G04 #@! TF.GenerationSoftware,Altium Limited,Altium Designer,20.1.8 (145)*
G04*
G04 Layer_Physical_Order=1*
G04 Layer_Color=255*
%FSLAX25Y25*%
%MOIN*%
G70*
G04*
G04 #@! TF.SameCoordinates,29470F38-3E2D-471E-A5C6-AA6385924B80*
G04*
G04*
G04 #@! TF.FilePolarity,Positive*
G04*
G01*
G75*
%ADD11C,0.00800*%
%ADD14R,0.03000X0.03200*%
%ADD15R,0.03200X0.03000*%
%ADD16R,0.03500X0.03400*%
%ADD17R,0.02362X0.04331*%
%ADD18R,0.03400X0.03500*%
%ADD19R,0.05512X0.04724*%
%ADD21R,0.04134X0.08661*%
%ADD22R,0.03937X0.04134*%
%ADD34C,0.01155*%
%ADD35R,0.06299X0.01378*%
%ADD36C,0.01200*%
%ADD37C,0.05906*%
%ADD38R,0.05906X0.05906*%
%ADD39C,0.02362*%
G36*
X115200Y127129D02*
X114506D01*
X114037Y127036D01*
X113640Y126771D01*
X107090Y120221D01*
X97994D01*
Y121297D01*
X93194D01*
Y116697D01*
X93314D01*
X93505Y116235D01*
X91385Y114116D01*
X91033Y114251D01*
X90912Y114349D01*
Y116697D01*
X92088D01*
Y121297D01*
X88637D01*
X88442Y121758D01*
X89448Y122797D01*
X92088D01*
Y123670D01*
X93194D01*
Y122797D01*
X97994D01*
Y127397D01*
X93194D01*
Y126525D01*
X92088D01*
Y127397D01*
X87288D01*
Y124670D01*
X86646Y124007D01*
X86183Y124195D01*
Y127397D01*
X81383D01*
Y124528D01*
X80276Y123421D01*
X79522D01*
Y124697D01*
X76772D01*
X74022D01*
Y123421D01*
X71813D01*
X70879Y124355D01*
Y128950D01*
X63767D01*
Y126969D01*
X62417D01*
Y129150D01*
X59061D01*
Y125787D01*
X58661D01*
Y125387D01*
X54905D01*
Y122425D01*
X56693D01*
Y121469D01*
X55106D01*
Y117131D01*
X50975Y113001D01*
X50671Y112545D01*
X50564Y112008D01*
Y109560D01*
X48019D01*
Y106582D01*
Y104380D01*
X45857D01*
Y105749D01*
X40757D01*
Y104380D01*
X37217D01*
Y106115D01*
X33255D01*
Y100184D01*
X37217D01*
Y101525D01*
X40757D01*
Y100749D01*
X45857D01*
Y101525D01*
X48019D01*
Y99524D01*
X47819D01*
Y98235D01*
X51968D01*
Y97435D01*
X47819D01*
Y96703D01*
X46800D01*
X46254Y96594D01*
X45791Y96285D01*
X45481Y95822D01*
X45373Y95276D01*
Y90897D01*
X43889D01*
Y91970D01*
X38789D01*
Y90897D01*
X37983D01*
Y91970D01*
X32883D01*
Y90897D01*
X30109D01*
Y91970D01*
X25427D01*
Y92870D01*
X27159D01*
Y95570D01*
Y98270D01*
X25427D01*
Y99545D01*
X25575Y99984D01*
X25927Y99984D01*
X27356D01*
Y103150D01*
Y106315D01*
X25575Y106315D01*
X25427Y106754D01*
Y110064D01*
X25775Y110421D01*
X29315D01*
Y110221D01*
X31096D01*
Y113386D01*
Y116551D01*
X29315D01*
Y116351D01*
X25775D01*
Y115152D01*
X25753Y115132D01*
X25275Y114931D01*
X24773Y115266D01*
X24000Y115420D01*
X23227Y115266D01*
X22572Y114828D01*
X22134Y114173D01*
X21980Y113400D01*
X22134Y112627D01*
X22572Y111972D01*
X22573Y111971D01*
Y90897D01*
X9470D01*
X9470Y90897D01*
X8923Y90789D01*
X8641Y90600D01*
X1200D01*
Y100800D01*
X10800Y100800D01*
X10800Y145905D01*
X115200Y145905D01*
Y127129D01*
D02*
G37*
G36*
Y124163D02*
Y93424D01*
X114738Y93232D01*
X109513Y98458D01*
X109518Y98464D01*
X108157Y99627D01*
X106630Y100563D01*
X104975Y101248D01*
X103234Y101666D01*
X101448Y101806D01*
Y101798D01*
X93933D01*
Y102794D01*
X84177D01*
X83986Y103256D01*
X96459Y115729D01*
X96724Y116126D01*
X96817Y116594D01*
Y116697D01*
X97994D01*
Y117774D01*
X107597D01*
X108065Y117867D01*
X108462Y118132D01*
X114700Y124370D01*
X115200Y124163D01*
D02*
G37*
G36*
X103129Y98842D02*
X104745Y98352D01*
X106234Y97556D01*
X107491Y96524D01*
X107526Y96472D01*
X115200Y88798D01*
Y35906D01*
X10800D01*
Y88042D01*
X25009D01*
Y86970D01*
X30109D01*
Y88042D01*
X32883D01*
Y86970D01*
X37983D01*
Y88042D01*
X38789D01*
Y86970D01*
X43889D01*
Y88042D01*
X46800D01*
X47346Y88151D01*
X47809Y88460D01*
X48119Y88923D01*
X48227Y89470D01*
Y91228D01*
X54142D01*
Y90344D01*
X71842D01*
Y91228D01*
X77965D01*
Y91228D01*
X77998Y91258D01*
X78937Y91165D01*
X80553Y90675D01*
X82042Y89879D01*
X83233Y88902D01*
Y86183D01*
X90228D01*
Y85727D01*
X90243Y85652D01*
X90062Y84276D01*
X89502Y82923D01*
X88611Y81762D01*
X87449Y80871D01*
X86097Y80311D01*
X84721Y80130D01*
X84646Y80145D01*
X65456D01*
Y80160D01*
X62894Y79992D01*
X60375Y79491D01*
X57944Y78665D01*
X55640Y77530D01*
X53505Y76103D01*
X51575Y74410D01*
X49881Y72479D01*
X48455Y70344D01*
X47319Y68041D01*
X46494Y65609D01*
X45992Y63090D01*
X45825Y60528D01*
X45825D01*
X45767Y60052D01*
X44476D01*
Y57087D01*
X43504D01*
Y56512D01*
X41837D01*
Y51181D01*
Y45850D01*
X43504D01*
Y45276D01*
X50984D01*
Y45850D01*
X52651D01*
Y51181D01*
Y56512D01*
X50984D01*
Y57087D01*
X50013D01*
Y60052D01*
X48649D01*
Y60528D01*
X48639Y60577D01*
X48779Y62723D01*
X49209Y64881D01*
X49916Y66965D01*
X50889Y68938D01*
X52112Y70768D01*
X53562Y72422D01*
X55216Y73873D01*
X57046Y75095D01*
X59019Y76068D01*
X61103Y76775D01*
X63261Y77205D01*
X65407Y77346D01*
X65456Y77336D01*
X84646D01*
Y77322D01*
X86285Y77484D01*
X87862Y77962D01*
X89315Y78739D01*
X90589Y79784D01*
X91634Y81058D01*
X92411Y82511D01*
X92889Y84087D01*
X93051Y85727D01*
X93051D01*
X93158Y86183D01*
X93933D01*
Y93084D01*
X94512D01*
X94569Y93095D01*
X95781Y92936D01*
X96963Y92446D01*
X97979Y91667D01*
X98758Y90651D01*
X99247Y89469D01*
X99407Y88257D01*
X99396Y88200D01*
Y84152D01*
X99408Y84090D01*
X99248Y82472D01*
X98758Y80856D01*
X97962Y79367D01*
X96891Y78061D01*
X95586Y76990D01*
X94096Y76194D01*
X92480Y75704D01*
X90862Y75545D01*
X90800Y75557D01*
X86232D01*
X85737Y75570D01*
X85733Y75570D01*
X85256Y75524D01*
X84092Y75409D01*
X82514Y74930D01*
X81060Y74153D01*
X79786Y73107D01*
X78740Y71832D01*
X77962Y70378D01*
X77484Y68800D01*
X77322Y67159D01*
X77336Y67157D01*
X77336Y67151D01*
Y63206D01*
X77336Y63205D01*
X77336Y63203D01*
X77336Y63199D01*
Y60052D01*
X75972D01*
Y57087D01*
X75000D01*
Y56512D01*
X73333D01*
Y51181D01*
Y45850D01*
X75000D01*
Y45276D01*
X82480D01*
Y45850D01*
X84147D01*
Y51181D01*
Y56512D01*
X82480D01*
Y57087D01*
X81509D01*
Y60052D01*
X80145D01*
Y63201D01*
X80144Y63203D01*
X80145Y63204D01*
X80145Y63209D01*
Y67153D01*
X80144Y67154D01*
X80145Y67155D01*
X80145Y67162D01*
X80130Y67236D01*
X80311Y68612D01*
X80872Y69966D01*
X81764Y71129D01*
X82926Y72021D01*
X84280Y72582D01*
X85659Y72763D01*
X85737Y72748D01*
X90800D01*
Y72740D01*
X92585Y72880D01*
X94327Y73298D01*
X95981Y73984D01*
X97508Y74919D01*
X98870Y76082D01*
X100033Y77444D01*
X100969Y78971D01*
X101654Y80626D01*
X102072Y82367D01*
X102213Y84152D01*
X102205D01*
Y88200D01*
X102215D01*
X102067Y89703D01*
X101628Y91148D01*
X100916Y92479D01*
X99958Y93647D01*
X98791Y94605D01*
X97460Y95316D01*
X96014Y95755D01*
X94512Y95903D01*
Y95893D01*
X93933D01*
Y98989D01*
X101448D01*
X101511Y99002D01*
X103129Y98842D01*
D02*
G37*
%LPC*%
G36*
X58261Y129150D02*
X54905D01*
Y126187D01*
X58261D01*
Y129150D01*
D02*
G37*
G36*
X79522Y127797D02*
X77172D01*
Y125497D01*
X79522D01*
Y127797D01*
D02*
G37*
G36*
X76372D02*
X74022D01*
Y125497D01*
X76372D01*
Y127797D01*
D02*
G37*
G36*
X31146Y124797D02*
X28846D01*
Y122447D01*
X31146D01*
Y124797D01*
D02*
G37*
G36*
X28046D02*
X25746D01*
Y122447D01*
X28046D01*
Y124797D01*
D02*
G37*
G36*
X31146Y121647D02*
X28846D01*
Y119297D01*
X31146D01*
Y121647D01*
D02*
G37*
G36*
X28046D02*
X25746D01*
Y119297D01*
X28046D01*
Y121647D01*
D02*
G37*
G36*
X37046Y124597D02*
X32046D01*
Y119497D01*
X33488D01*
X33517Y119465D01*
X33709Y118997D01*
X33370Y118490D01*
X33216Y117717D01*
X33349Y117051D01*
X33077Y116551D01*
X31896D01*
Y113386D01*
Y110221D01*
X33677D01*
Y110421D01*
X37217D01*
Y116351D01*
X37217D01*
X36990Y116776D01*
X37102Y116944D01*
X37256Y117717D01*
X37102Y118490D01*
X36763Y118997D01*
X36955Y119465D01*
X36985Y119497D01*
X37046D01*
Y124597D01*
D02*
G37*
G36*
X46057Y112049D02*
X43707D01*
Y109749D01*
X46057D01*
Y112049D01*
D02*
G37*
G36*
X42907D02*
X40557D01*
Y109749D01*
X42907D01*
Y112049D01*
D02*
G37*
G36*
X46057Y108949D02*
X43707D01*
Y106649D01*
X46057D01*
Y108949D01*
D02*
G37*
G36*
X42907D02*
X40557D01*
Y106649D01*
X42907D01*
Y108949D01*
D02*
G37*
G36*
X28156Y106315D02*
Y103550D01*
X29937D01*
Y106315D01*
X28156D01*
D02*
G37*
G36*
X29937Y102750D02*
X28156D01*
Y99984D01*
X29937D01*
Y102750D01*
D02*
G37*
G36*
X6406Y99625D02*
Y96406D01*
X9625D01*
X9562Y96885D01*
X9183Y97798D01*
X8582Y98582D01*
X7798Y99183D01*
X6885Y99562D01*
X6406Y99625D01*
D02*
G37*
G36*
X5406D02*
X4926Y99562D01*
X4013Y99183D01*
X3229Y98582D01*
X2627Y97798D01*
X2249Y96885D01*
X2186Y96406D01*
X5406D01*
Y99625D01*
D02*
G37*
G36*
X35033Y98270D02*
X32683D01*
Y95970D01*
X35033D01*
Y98270D01*
D02*
G37*
G36*
X41739D02*
Y95970D01*
X44089D01*
Y98270D01*
X41739D01*
D02*
G37*
G36*
X30309D02*
X27959D01*
Y95970D01*
X30309D01*
Y98270D01*
D02*
G37*
G36*
X44089Y95170D02*
X41739D01*
Y92870D01*
X44089D01*
Y95170D01*
D02*
G37*
G36*
X30309D02*
X27959D01*
Y92870D01*
X30309D01*
Y95170D01*
D02*
G37*
G36*
X35033Y95170D02*
X32683D01*
Y92870D01*
X35033D01*
Y95170D01*
D02*
G37*
G36*
X38589Y98270D02*
X38183D01*
X38089Y98270D01*
X35833D01*
Y95570D01*
Y92870D01*
X38089D01*
X38183Y92870D01*
X38589D01*
X38683Y92870D01*
X40939D01*
Y95570D01*
Y98270D01*
X38683D01*
X38589Y98270D01*
D02*
G37*
G36*
X5406Y95406D02*
X2186D01*
X2249Y94926D01*
X2627Y94013D01*
X3229Y93229D01*
X4013Y92628D01*
X4926Y92249D01*
X5406Y92186D01*
Y95406D01*
D02*
G37*
G36*
X9625D02*
X6406D01*
Y92186D01*
X6885Y92249D01*
X7798Y92628D01*
X8582Y93229D01*
X9183Y94013D01*
X9562Y94926D01*
X9625Y95406D01*
D02*
G37*
G36*
X56118Y56512D02*
X53451D01*
Y51581D01*
X56118D01*
Y56512D01*
D02*
G37*
G36*
X87614D02*
X84947D01*
Y51581D01*
X87614D01*
Y56512D01*
D02*
G37*
G36*
X41037D02*
X38370D01*
Y51581D01*
X41037D01*
Y56512D01*
D02*
G37*
G36*
X72533D02*
X69866D01*
Y51581D01*
X72533D01*
Y56512D01*
D02*
G37*
G36*
X87614Y50781D02*
X84947D01*
Y45850D01*
X87614D01*
Y50781D01*
D02*
G37*
G36*
X72533D02*
X69866D01*
Y45850D01*
X72533D01*
Y50781D01*
D02*
G37*
G36*
X56118D02*
X53451D01*
Y45850D01*
X56118D01*
Y50781D01*
D02*
G37*
G36*
X41037D02*
X38370D01*
Y45850D01*
X41037D01*
Y50781D01*
D02*
G37*
%LPD*%
D11*
X83683Y125097D02*
X83783D01*
X80783Y122197D02*
X83683Y125097D01*
X71307Y122197D02*
X80783D01*
X95594Y118997D02*
X107597D01*
X114506Y125906D01*
X89688Y114297D02*
Y118997D01*
X80903Y105512D02*
X89688Y114297D01*
X95594Y116594D02*
Y118997D01*
X81953Y102953D02*
X95594Y116594D01*
X74016Y102953D02*
X81953D01*
X74016Y105512D02*
X80903D01*
X114506Y125906D02*
X120079D01*
X67716Y125787D02*
X71307Y122197D01*
X67323Y125787D02*
X67716D01*
D14*
X85533Y100394D02*
D03*
X91633D02*
D03*
Y94488D02*
D03*
X85533D02*
D03*
Y88583D02*
D03*
X91633D02*
D03*
D15*
X83783Y118997D02*
D03*
Y125097D02*
D03*
X89688D02*
D03*
Y118997D02*
D03*
X95594Y125097D02*
D03*
Y118997D02*
D03*
D16*
X43307Y109349D02*
D03*
Y103249D02*
D03*
X41339Y95570D02*
D03*
Y89470D02*
D03*
X35433Y95570D02*
D03*
Y89470D02*
D03*
X27559Y95570D02*
D03*
Y89470D02*
D03*
X76772Y125097D02*
D03*
Y118997D02*
D03*
D17*
X35236Y103150D02*
D03*
X27756D02*
D03*
Y113386D02*
D03*
X31496D02*
D03*
X35236D02*
D03*
D18*
X28446Y122047D02*
D03*
X34546D02*
D03*
D19*
X67323Y125787D02*
D03*
X58661D02*
D03*
X67323Y118307D02*
D03*
X58661D02*
D03*
D21*
X84547Y51181D02*
D03*
X72933D02*
D03*
X53051D02*
D03*
X41437D02*
D03*
D22*
X78740Y57185D02*
D03*
X47244D02*
D03*
D34*
X100800Y88200D02*
X100723Y89184D01*
X100492Y90143D01*
X100115Y91055D01*
X99599Y91896D01*
X98958Y92646D01*
X98208Y93287D01*
X97367Y93803D01*
X96455Y94180D01*
X95495Y94411D01*
X94512Y94488D01*
X85737Y74152D02*
X84741Y74082D01*
X83766Y73870D01*
X82830Y73522D01*
X81954Y73044D01*
X81155Y72446D01*
X80449Y71740D01*
X79851Y70941D01*
X79373Y70065D01*
X79024Y69130D01*
X78811Y68155D01*
X78740Y67159D01*
X90800Y74152D02*
X91780Y74201D01*
X92751Y74345D01*
X93703Y74583D01*
X94627Y74914D01*
X95514Y75333D01*
X96356Y75838D01*
X97144Y76422D01*
X97871Y77081D01*
X98530Y77808D01*
X99115Y78597D01*
X99619Y79438D01*
X100039Y80326D01*
X100369Y81250D01*
X100608Y82201D01*
X100752Y83172D01*
X100800Y84152D01*
X84646Y78740D02*
X85640Y78811D01*
X86614Y79023D01*
X87548Y79372D01*
X88423Y79849D01*
X89221Y80447D01*
X89926Y81152D01*
X90523Y81950D01*
X91001Y82825D01*
X91350Y83759D01*
X91562Y84733D01*
X91633Y85727D01*
X84328Y89788D02*
X83601Y90447D01*
X82812Y91031D01*
X81971Y91536D01*
X81084Y91955D01*
X80159Y92286D01*
X79208Y92524D01*
X78237Y92668D01*
X77257Y92716D01*
X65456Y78740D02*
X64470Y78714D01*
X63487Y78633D01*
X62510Y78500D01*
X61541Y78314D01*
X60584Y78076D01*
X59641Y77787D01*
X58715Y77447D01*
X57809Y77057D01*
X56925Y76619D01*
X56067Y76133D01*
X55236Y75602D01*
X54435Y75027D01*
X53666Y74409D01*
X52932Y73750D01*
X52234Y73053D01*
X51576Y72318D01*
X50958Y71549D01*
X50382Y70748D01*
X49851Y69917D01*
X49366Y69059D01*
X48927Y68175D01*
X48538Y67269D01*
X48197Y66343D01*
X47908Y65400D01*
X47670Y64443D01*
X47484Y63474D01*
X47351Y62497D01*
X47271Y61514D01*
X47244Y60528D01*
X108519Y97465D02*
X107792Y98124D01*
X107004Y98708D01*
X106162Y99213D01*
X105275Y99633D01*
X104351Y99963D01*
X103399Y100201D01*
X102429Y100346D01*
X101448Y100394D01*
X58268Y118307D02*
X58661D01*
X51968Y108071D02*
Y112008D01*
X58268Y118307D01*
X100800Y84152D02*
Y88200D01*
X85737Y74152D02*
X90800D01*
X91633Y85727D02*
Y88583D01*
Y94488D02*
X94512D01*
X78740Y63206D02*
Y67153D01*
X78740Y67159D02*
X78740Y67153D01*
X78740Y57185D02*
Y63201D01*
X78740Y63206D02*
X78740Y63201D01*
X84328Y89788D02*
X85533Y88583D01*
X74016Y92716D02*
X77257D01*
X74016Y95276D02*
X74127Y95164D01*
X84857D01*
X85533Y94488D01*
X47244Y57185D02*
Y60528D01*
X65456Y78740D02*
X84646D01*
X108519Y97465D02*
X120079Y85905D01*
X91633Y100394D02*
X101448D01*
X74016D02*
X85533D01*
D35*
X51968Y108071D02*
D03*
Y105512D02*
D03*
Y102953D02*
D03*
Y100394D02*
D03*
Y97835D02*
D03*
Y95276D02*
D03*
Y92716D02*
D03*
X74016Y92716D02*
D03*
Y95276D02*
D03*
Y97835D02*
D03*
Y100394D02*
D03*
Y102953D02*
D03*
Y105512D02*
D03*
Y108071D02*
D03*
D36*
Y97835D02*
X81600D01*
Y97800D02*
Y97835D01*
X83783Y118997D02*
X89688Y125097D01*
X95594D01*
X76772Y118997D02*
X83783D01*
X9470Y89470D02*
X24000D01*
X27559D01*
X24000D02*
Y113400D01*
X35236Y117717D02*
Y122047D01*
X27742Y113400D02*
X27756Y113386D01*
X24000Y113400D02*
X27742D01*
X35236Y113386D02*
Y117717D01*
X76772Y114945D02*
Y118997D01*
X68013D02*
X76772D01*
X5906Y85905D02*
X9470Y89470D01*
X41339D02*
X46800D01*
Y92716D02*
Y95276D01*
Y89470D02*
Y92716D01*
X51968D01*
X46800Y95276D02*
X51968D01*
X34546Y122047D02*
X35236D01*
X35433Y89470D02*
X41339D01*
X27559D02*
X35433D01*
X35433Y102953D02*
X51968D01*
X35236Y103150D02*
X35433Y102953D01*
D37*
X5906Y95906D02*
D03*
Y165905D02*
D03*
Y155905D02*
D03*
Y145905D02*
D03*
Y135906D02*
D03*
Y125906D02*
D03*
Y115905D02*
D03*
Y105905D02*
D03*
Y85905D02*
D03*
X120079Y165905D02*
D03*
Y5906D02*
D03*
Y15905D02*
D03*
Y25905D02*
D03*
Y35906D02*
D03*
Y45906D02*
D03*
Y55905D02*
D03*
Y65905D02*
D03*
Y75906D02*
D03*
Y85905D02*
D03*
Y95906D02*
D03*
Y105905D02*
D03*
Y115905D02*
D03*
Y125906D02*
D03*
Y135906D02*
D03*
Y145905D02*
D03*
Y155905D02*
D03*
D38*
X5906Y75906D02*
D03*
D39*
X81600Y97800D02*
D03*
X99600Y60052D02*
D03*
X36600Y78600D02*
D03*
X33216Y108071D02*
D03*
X31496Y95570D02*
D03*
X24000Y122047D02*
D03*
Y113400D02*
D03*
X35236Y117717D02*
D03*
X40200Y114000D02*
D03*
X76772Y114945D02*
D03*
X80903Y105512D02*
D03*
X92400Y78000D02*
D03*
X96600Y88200D02*
D03*
Y71400D02*
D03*
X106200Y102600D02*
D03*
X47400Y111000D02*
D03*
X58200Y81000D02*
D03*
X16800Y96000D02*
D03*
X84000Y42600D02*
D03*
X73200D02*
D03*
X53400D02*
D03*
X41400D02*
D03*
X67200Y49800D02*
D03*
X58800Y52800D02*
D03*
X90000Y50400D02*
D03*
X35400Y49200D02*
D03*
X25200Y63600D02*
D03*
X105600Y48000D02*
D03*
X107400Y135000D02*
D03*
X73800Y59400D02*
D03*
X41400D02*
D03*
X51600Y62400D02*
D03*
X46200Y99600D02*
D03*
X79200Y88200D02*
D03*
X113400Y97200D02*
D03*
X111600Y89400D02*
D03*
X104400Y96000D02*
D03*
X96000Y97200D02*
D03*
X104400Y81600D02*
D03*
X84000Y70200D02*
D03*
X78000Y75000D02*
D03*
X75000Y67800D02*
D03*
X82800Y62400D02*
D03*
X69000Y75600D02*
D03*
X57000Y72000D02*
D03*
X46800Y72600D02*
D03*
X73200Y82200D02*
D03*
X87000Y83400D02*
D03*
X74400Y129600D02*
D03*
X80400D02*
D03*
X77400D02*
D03*
X53400Y124200D02*
D03*
Y127200D02*
D03*
M02*
