G04*
G04 #@! TF.GenerationSoftware,Altium Limited,Altium Designer,20.0.11 (256)*
G04*
G04 Layer_Physical_Order=2*
G04 Layer_Color=16711680*
%FSLAX25Y25*%
%MOIN*%
G70*
G01*
G75*
%ADD32C,0.05906*%
%ADD33R,0.05906X0.05906*%
%ADD34C,0.02362*%
G36*
X115200Y36000D02*
X11400D01*
Y90600D01*
X1200D01*
Y100800D01*
X11400D01*
Y141000D01*
X115200D01*
Y36000D01*
D02*
G37*
%LPC*%
G36*
X6406Y99625D02*
Y96406D01*
X9625D01*
X9562Y96885D01*
X9183Y97798D01*
X8582Y98582D01*
X7798Y99183D01*
X6885Y99562D01*
X6406Y99625D01*
D02*
G37*
G36*
X5406D02*
X4926Y99562D01*
X4013Y99183D01*
X3229Y98582D01*
X2627Y97798D01*
X2249Y96885D01*
X2186Y96406D01*
X5406D01*
Y99625D01*
D02*
G37*
G36*
Y95406D02*
X2186D01*
X2249Y94926D01*
X2627Y94013D01*
X3229Y93229D01*
X4013Y92628D01*
X4926Y92249D01*
X5406Y92186D01*
Y95406D01*
D02*
G37*
G36*
X9625D02*
X6406D01*
Y92186D01*
X6885Y92249D01*
X7798Y92628D01*
X8582Y93229D01*
X9183Y94013D01*
X9562Y94926D01*
X9625Y95406D01*
D02*
G37*
G36*
X71842Y110444D02*
X54142D01*
Y90344D01*
X71842D01*
Y110444D01*
D02*
G37*
G36*
X84646Y57087D02*
X72835D01*
Y45276D01*
X84646D01*
Y57087D01*
D02*
G37*
G36*
X53150D02*
X41339D01*
Y45276D01*
X53150D01*
Y57087D01*
D02*
G37*
%LPD*%
D32*
X5906Y95906D02*
D03*
Y165905D02*
D03*
Y155905D02*
D03*
Y145905D02*
D03*
Y135906D02*
D03*
Y125906D02*
D03*
Y115905D02*
D03*
Y105905D02*
D03*
Y85905D02*
D03*
X120079Y5906D02*
D03*
Y15905D02*
D03*
Y25905D02*
D03*
Y35906D02*
D03*
Y45906D02*
D03*
Y55905D02*
D03*
Y65905D02*
D03*
Y75906D02*
D03*
Y85905D02*
D03*
Y95906D02*
D03*
Y105905D02*
D03*
Y115905D02*
D03*
Y125906D02*
D03*
Y135906D02*
D03*
Y145905D02*
D03*
Y155905D02*
D03*
D33*
X5906Y75906D02*
D03*
X120079Y165905D02*
D03*
D34*
X16800Y96000D02*
D03*
X84000Y42600D02*
D03*
X73200D02*
D03*
X53400D02*
D03*
X41400D02*
D03*
X67200Y49800D02*
D03*
X58800Y52800D02*
D03*
X90000Y50400D02*
D03*
X35400Y49200D02*
D03*
X19800Y54000D02*
D03*
X109800Y53400D02*
D03*
X107400Y135000D02*
D03*
X28800Y125400D02*
D03*
X73800Y59400D02*
D03*
X41400D02*
D03*
X51600Y62400D02*
D03*
X49200Y86400D02*
D03*
X46200Y108000D02*
D03*
Y98400D02*
D03*
Y93600D02*
D03*
X31500Y95570D02*
D03*
X28800Y101400D02*
D03*
X79200Y88200D02*
D03*
X113400Y97200D02*
D03*
X100800Y103800D02*
D03*
X111600Y89400D02*
D03*
X104400Y96000D02*
D03*
X96000D02*
D03*
X100200Y84600D02*
D03*
X94800Y73800D02*
D03*
X84000Y70200D02*
D03*
X78000Y75000D02*
D03*
X75000Y67800D02*
D03*
X82800Y62400D02*
D03*
X69000Y75600D02*
D03*
X57000Y72000D02*
D03*
X46800Y72600D02*
D03*
X58200Y81000D02*
D03*
X73200Y82200D02*
D03*
X87000Y83400D02*
D03*
X72600Y130200D02*
D03*
X81600D02*
D03*
X76800D02*
D03*
X51600Y118800D02*
D03*
Y126000D02*
D03*
X78600Y110400D02*
D03*
X83400Y114600D02*
D03*
M02*
