G04*
G04 #@! TF.GenerationSoftware,Altium Limited,Altium Designer,20.1.8 (145)*
G04*
G04 Layer_Physical_Order=2*
G04 Layer_Color=16711680*
%FSLAX25Y25*%
%MOIN*%
G70*
G04*
G04 #@! TF.SameCoordinates,29470F38-3E2D-471E-A5C6-AA6385924B80*
G04*
G04*
G04 #@! TF.FilePolarity,Positive*
G04*
G01*
G75*
%ADD11C,0.00800*%
%ADD36C,0.01200*%
%ADD37C,0.05906*%
%ADD38R,0.05906X0.05906*%
%ADD39C,0.02362*%
G36*
X115200Y103168D02*
X114738Y102977D01*
X111338Y106377D01*
X110941Y106642D01*
X110472Y106735D01*
X82468D01*
X82331Y106940D01*
X81676Y107378D01*
X80903Y107532D01*
X80130Y107378D01*
X79475Y106940D01*
X79037Y106285D01*
X78883Y105512D01*
X79037Y104739D01*
X79475Y104084D01*
X80130Y103646D01*
X80903Y103492D01*
X81676Y103646D01*
X82331Y104084D01*
X82468Y104288D01*
X109966D01*
X115200Y99054D01*
Y35906D01*
X10800D01*
Y90600D01*
X1200D01*
Y100800D01*
X10800Y100800D01*
X10800Y145905D01*
X115200Y145905D01*
Y103168D01*
D02*
G37*
%LPC*%
G36*
X35236Y119736D02*
X34463Y119583D01*
X33808Y119145D01*
X33370Y118490D01*
X33216Y117717D01*
X33217Y117716D01*
X30328Y114827D01*
X25429D01*
X25428Y114828D01*
X24773Y115266D01*
X24000Y115420D01*
X23227Y115266D01*
X22572Y114828D01*
X22134Y114173D01*
X21980Y113400D01*
X22134Y112627D01*
X22572Y111972D01*
X23227Y111534D01*
X24000Y111380D01*
X24773Y111534D01*
X25428Y111972D01*
X25429Y111973D01*
X30920D01*
X30920Y111973D01*
X31466Y112081D01*
X31929Y112391D01*
X35235Y115697D01*
X35236Y115697D01*
X36009Y115850D01*
X36665Y116288D01*
X36665Y116289D01*
X47504D01*
X49858Y113936D01*
X49858Y113936D01*
X50321Y113627D01*
X50867Y113518D01*
X75343D01*
X75343Y113517D01*
X75999Y113079D01*
X76772Y112926D01*
X77545Y113079D01*
X78200Y113517D01*
X78638Y114172D01*
X78792Y114945D01*
X78638Y115718D01*
X78200Y116374D01*
X77545Y116812D01*
X76772Y116965D01*
X75999Y116812D01*
X75343Y116374D01*
X75343Y116373D01*
X51458D01*
X49105Y118726D01*
X48642Y119035D01*
X48096Y119144D01*
X48096Y119144D01*
X36665D01*
X36665Y119145D01*
X36009Y119583D01*
X35236Y119736D01*
D02*
G37*
G36*
X6406Y99625D02*
Y96406D01*
X9625D01*
X9562Y96885D01*
X9183Y97798D01*
X8582Y98582D01*
X7798Y99183D01*
X6885Y99562D01*
X6406Y99625D01*
D02*
G37*
G36*
X5406D02*
X4926Y99562D01*
X4013Y99183D01*
X3229Y98582D01*
X2627Y97798D01*
X2249Y96885D01*
X2186Y96406D01*
X5406D01*
Y99625D01*
D02*
G37*
G36*
Y95406D02*
X2186D01*
X2249Y94926D01*
X2627Y94013D01*
X3229Y93229D01*
X4013Y92628D01*
X4926Y92249D01*
X5406Y92186D01*
Y95406D01*
D02*
G37*
G36*
X9625D02*
X6406D01*
Y92186D01*
X6885Y92249D01*
X7798Y92628D01*
X8582Y93229D01*
X9183Y94013D01*
X9562Y94926D01*
X9625Y95406D01*
D02*
G37*
G36*
X71842Y110444D02*
X54142D01*
Y90344D01*
X71842D01*
Y110444D01*
D02*
G37*
G36*
X84646Y57087D02*
X72835D01*
Y45276D01*
X84646D01*
Y57087D01*
D02*
G37*
G36*
X53150D02*
X41339D01*
Y45276D01*
X53150D01*
Y57087D01*
D02*
G37*
%LPD*%
D11*
X110472Y105512D02*
X120079Y95906D01*
X80903Y105512D02*
X110472D01*
D36*
X24000Y113400D02*
X30920D01*
X35236Y117717D01*
X48096D01*
X50867Y114945D01*
X76772D01*
D37*
X5906Y95906D02*
D03*
Y165905D02*
D03*
Y155905D02*
D03*
Y145905D02*
D03*
Y135906D02*
D03*
Y125906D02*
D03*
Y115905D02*
D03*
Y105905D02*
D03*
Y85905D02*
D03*
X120079Y165905D02*
D03*
Y5906D02*
D03*
Y15905D02*
D03*
Y25905D02*
D03*
Y35906D02*
D03*
Y45906D02*
D03*
Y55905D02*
D03*
Y65905D02*
D03*
Y75906D02*
D03*
Y85905D02*
D03*
Y95906D02*
D03*
Y105905D02*
D03*
Y115905D02*
D03*
Y125906D02*
D03*
Y135906D02*
D03*
Y145905D02*
D03*
Y155905D02*
D03*
D38*
X5906Y75906D02*
D03*
D39*
X81600Y97800D02*
D03*
X99600Y60052D02*
D03*
X36600Y78600D02*
D03*
X33216Y108071D02*
D03*
X31496Y95570D02*
D03*
X24000Y122047D02*
D03*
Y113400D02*
D03*
X35236Y117717D02*
D03*
X40200Y114000D02*
D03*
X76772Y114945D02*
D03*
X80903Y105512D02*
D03*
X92400Y78000D02*
D03*
X96600Y88200D02*
D03*
Y71400D02*
D03*
X106200Y102600D02*
D03*
X47400Y111000D02*
D03*
X58200Y81000D02*
D03*
X16800Y96000D02*
D03*
X84000Y42600D02*
D03*
X73200D02*
D03*
X53400D02*
D03*
X41400D02*
D03*
X67200Y49800D02*
D03*
X58800Y52800D02*
D03*
X90000Y50400D02*
D03*
X35400Y49200D02*
D03*
X25200Y63600D02*
D03*
X105600Y48000D02*
D03*
X107400Y135000D02*
D03*
X73800Y59400D02*
D03*
X41400D02*
D03*
X51600Y62400D02*
D03*
X46200Y99600D02*
D03*
X79200Y88200D02*
D03*
X113400Y97200D02*
D03*
X111600Y89400D02*
D03*
X104400Y96000D02*
D03*
X96000Y97200D02*
D03*
X104400Y81600D02*
D03*
X84000Y70200D02*
D03*
X78000Y75000D02*
D03*
X75000Y67800D02*
D03*
X82800Y62400D02*
D03*
X69000Y75600D02*
D03*
X57000Y72000D02*
D03*
X46800Y72600D02*
D03*
X73200Y82200D02*
D03*
X87000Y83400D02*
D03*
X74400Y129600D02*
D03*
X80400D02*
D03*
X77400D02*
D03*
X53400Y124200D02*
D03*
Y127200D02*
D03*
M02*
