G04*
G04 #@! TF.GenerationSoftware,Altium Limited,Altium Designer,20.1.8 (145)*
G04*
G04 Layer_Color=2752767*
%FSLAX25Y25*%
%MOIN*%
G70*
G04*
G04 #@! TF.SameCoordinates,B6191FBB-5C88-4D09-BA80-96395D220C01*
G04*
G04*
G04 #@! TF.FilePolarity,Positive*
G04*
G01*
G75*
%ADD41C,0.00200*%
%ADD42C,0.00267*%
D41*
X5105Y95105D02*
Y96706D01*
X6706D01*
Y95105D01*
X5105D01*
Y165105D02*
Y166706D01*
X6706D01*
Y165105D01*
X5105D01*
Y155105D02*
Y156705D01*
X6706D01*
Y155105D01*
X5105D01*
Y145106D02*
Y146705D01*
X6706D01*
Y145106D01*
X5105D01*
Y135106D02*
Y136706D01*
X6706D01*
Y135106D01*
X5105D01*
Y125106D02*
Y126706D01*
X6706D01*
Y125106D01*
X5105D01*
Y115105D02*
Y116706D01*
X6706D01*
Y115105D01*
X5105D01*
Y105105D02*
Y106705D01*
X6706D01*
Y105105D01*
X5105D01*
Y85106D02*
Y86705D01*
X6706D01*
Y85106D01*
X5105D01*
Y75106D02*
Y76705D01*
X6706D01*
Y75106D01*
X5105D01*
X119279Y165105D02*
Y166706D01*
X120879D01*
Y165105D01*
X119279D01*
Y5105D02*
Y6706D01*
X120879D01*
Y5105D01*
X119279D01*
Y15105D02*
Y16705D01*
X120879D01*
Y15105D01*
X119279D01*
Y25106D02*
Y26706D01*
X120879D01*
Y25106D01*
X119279D01*
Y35105D02*
Y36705D01*
X120879D01*
Y35105D01*
X119279D01*
Y45105D02*
Y46705D01*
X120879D01*
Y45105D01*
X119279D01*
Y55106D02*
Y56705D01*
X120879D01*
Y55106D01*
X119279D01*
Y65105D02*
Y66706D01*
X120879D01*
Y65105D01*
X119279D01*
Y75106D02*
Y76705D01*
X120879D01*
Y75106D01*
X119279D01*
Y85106D02*
Y86705D01*
X120879D01*
Y85106D01*
X119279D01*
Y95105D02*
Y96706D01*
X120879D01*
Y95105D01*
X119279D01*
Y105105D02*
Y106705D01*
X120879D01*
Y105105D01*
X119279D01*
Y115105D02*
Y116706D01*
X120879D01*
Y115105D01*
X119279D01*
Y125106D02*
Y126706D01*
X120879D01*
Y125106D01*
X119279D01*
Y135106D02*
Y136706D01*
X120879D01*
Y135106D01*
X119279D01*
Y145106D02*
Y146705D01*
X120879D01*
Y145106D01*
X119279D01*
Y155105D02*
Y156705D01*
X120879D01*
Y155105D01*
X119279D01*
D42*
X107000Y102600D02*
X106447Y103361D01*
X105553Y103070D01*
Y102130D01*
X106447Y101839D01*
X107000Y102600D01*
X81703Y105512D02*
X81150Y106273D01*
X80256Y105982D01*
Y105042D01*
X81150Y104751D01*
X81703Y105512D01*
X47600Y109800D02*
X47047Y110561D01*
X46153Y110270D01*
Y109330D01*
X47047Y109039D01*
X47600Y109800D01*
Y106200D02*
X47047Y106961D01*
X46153Y106670D01*
Y105730D01*
X47047Y105439D01*
X47600Y106200D01*
X28400Y118200D02*
X27847Y118961D01*
X26953Y118670D01*
Y117730D01*
X27847Y117439D01*
X28400Y118200D01*
X32000D02*
X31447Y118961D01*
X30553Y118670D01*
Y117730D01*
X31447Y117439D01*
X32000Y118200D01*
X24800D02*
X24247Y118961D01*
X23353Y118670D01*
Y117730D01*
X24247Y117439D01*
X24800Y118200D01*
X80000Y97800D02*
X79447Y98561D01*
X78553Y98270D01*
Y97330D01*
X79447Y97039D01*
X80000Y97800D01*
X39200Y99000D02*
X38647Y99761D01*
X37753Y99470D01*
Y98530D01*
X38647Y98239D01*
X39200Y99000D01*
X32000Y94200D02*
X31447Y94961D01*
X30553Y94670D01*
Y93730D01*
X31447Y93439D01*
X32000Y94200D01*
Y100200D02*
X31447Y100961D01*
X30553Y100670D01*
Y99730D01*
X31447Y99439D01*
X32000Y100200D01*
X47600Y113400D02*
X47047Y114161D01*
X46153Y113870D01*
Y112930D01*
X47047Y112639D01*
X47600Y113400D01*
X32000Y106200D02*
X31447Y106961D01*
X30553Y106670D01*
Y105730D01*
X31447Y105439D01*
X32000Y106200D01*
X59000Y81000D02*
X58447Y81761D01*
X57553Y81470D01*
Y80530D01*
X58447Y80239D01*
X59000Y81000D01*
X47000Y96600D02*
X46447Y97361D01*
X45553Y97070D01*
Y96130D01*
X46447Y95839D01*
X47000Y96600D01*
X17600Y96000D02*
X17047Y96761D01*
X16153Y96470D01*
Y95530D01*
X17047Y95239D01*
X17600Y96000D01*
X84800Y42600D02*
X84247Y43361D01*
X83353Y43070D01*
Y42130D01*
X84247Y41839D01*
X84800Y42600D01*
X74000D02*
X73447Y43361D01*
X72553Y43070D01*
Y42130D01*
X73447Y41839D01*
X74000Y42600D01*
X54200D02*
X53647Y43361D01*
X52753Y43070D01*
Y42130D01*
X53647Y41839D01*
X54200Y42600D01*
X42200D02*
X41647Y43361D01*
X40753Y43070D01*
Y42130D01*
X41647Y41839D01*
X42200Y42600D01*
X68000Y49800D02*
X67447Y50561D01*
X66553Y50270D01*
Y49330D01*
X67447Y49039D01*
X68000Y49800D01*
X59600Y52800D02*
X59047Y53561D01*
X58153Y53270D01*
Y52330D01*
X59047Y52039D01*
X59600Y52800D01*
X90800Y50400D02*
X90247Y51161D01*
X89353Y50870D01*
Y49930D01*
X90247Y49639D01*
X90800Y50400D01*
X36200Y49200D02*
X35647Y49961D01*
X34753Y49670D01*
Y48730D01*
X35647Y48439D01*
X36200Y49200D01*
X20600Y54000D02*
X20047Y54761D01*
X19153Y54470D01*
Y53530D01*
X20047Y53239D01*
X20600Y54000D01*
X110600Y53400D02*
X110047Y54161D01*
X109153Y53870D01*
Y52930D01*
X110047Y52639D01*
X110600Y53400D01*
X108200Y135000D02*
X107647Y135761D01*
X106753Y135470D01*
Y134530D01*
X107647Y134239D01*
X108200Y135000D01*
X74600Y59400D02*
X74047Y60161D01*
X73153Y59870D01*
Y58930D01*
X74047Y58639D01*
X74600Y59400D01*
X42200D02*
X41647Y60161D01*
X40753Y59870D01*
Y58930D01*
X41647Y58639D01*
X42200Y59400D01*
X52400Y62400D02*
X51847Y63161D01*
X50953Y62870D01*
Y61930D01*
X51847Y61639D01*
X52400Y62400D01*
X47000Y99600D02*
X46447Y100361D01*
X45553Y100070D01*
Y99130D01*
X46447Y98839D01*
X47000Y99600D01*
X80000Y88200D02*
X79447Y88961D01*
X78553Y88670D01*
Y87730D01*
X79447Y87439D01*
X80000Y88200D01*
X114200Y97200D02*
X113647Y97961D01*
X112753Y97670D01*
Y96730D01*
X113647Y96439D01*
X114200Y97200D01*
X112400Y89400D02*
X111847Y90161D01*
X110953Y89870D01*
Y88930D01*
X111847Y88639D01*
X112400Y89400D01*
X105200Y96000D02*
X104647Y96761D01*
X103753Y96470D01*
Y95530D01*
X104647Y95239D01*
X105200Y96000D01*
X96800Y97200D02*
X96247Y97961D01*
X95353Y97670D01*
Y96730D01*
X96247Y96439D01*
X96800Y97200D01*
X101000Y84600D02*
X100447Y85361D01*
X99553Y85070D01*
Y84130D01*
X100447Y83839D01*
X101000Y84600D01*
X95600Y73800D02*
X95047Y74561D01*
X94153Y74270D01*
Y73330D01*
X95047Y73039D01*
X95600Y73800D01*
X84800Y70200D02*
X84247Y70961D01*
X83353Y70670D01*
Y69730D01*
X84247Y69439D01*
X84800Y70200D01*
X78800Y75000D02*
X78247Y75761D01*
X77353Y75470D01*
Y74530D01*
X78247Y74239D01*
X78800Y75000D01*
X75800Y67800D02*
X75247Y68561D01*
X74353Y68270D01*
Y67330D01*
X75247Y67039D01*
X75800Y67800D01*
X83600Y62400D02*
X83047Y63161D01*
X82153Y62870D01*
Y61930D01*
X83047Y61639D01*
X83600Y62400D01*
X69800Y75600D02*
X69247Y76361D01*
X68353Y76070D01*
Y75130D01*
X69247Y74839D01*
X69800Y75600D01*
X57800Y72000D02*
X57247Y72761D01*
X56353Y72470D01*
Y71530D01*
X57247Y71239D01*
X57800Y72000D01*
X47600Y72600D02*
X47047Y73361D01*
X46153Y73070D01*
Y72130D01*
X47047Y71839D01*
X47600Y72600D01*
X74000Y82200D02*
X73447Y82961D01*
X72553Y82670D01*
Y81730D01*
X73447Y81439D01*
X74000Y82200D01*
X87800Y83400D02*
X87247Y84161D01*
X86353Y83870D01*
Y82930D01*
X87247Y82639D01*
X87800Y83400D01*
X75200Y129600D02*
X74647Y130361D01*
X73753Y130070D01*
Y129130D01*
X74647Y128839D01*
X75200Y129600D01*
X81200D02*
X80647Y130361D01*
X79753Y130070D01*
Y129130D01*
X80647Y128839D01*
X81200Y129600D01*
X78200D02*
X77647Y130361D01*
X76753Y130070D01*
Y129130D01*
X77647Y128839D01*
X78200Y129600D01*
X54200Y124200D02*
X53647Y124961D01*
X52753Y124670D01*
Y123730D01*
X53647Y123439D01*
X54200Y124200D01*
Y127200D02*
X53647Y127961D01*
X52753Y127670D01*
Y126730D01*
X53647Y126439D01*
X54200Y127200D01*
M02*
