M48
;Layer_Color=9474304
;FILE_FORMAT=2:5
INCH,TZ
;TYPE=PLATED
T1F00S00C0.01181
T2F00S00C0.03543
%
T01
X19800Y54000
X35400Y49200
X41400Y42600
X53400
X58800Y52800
X67200Y49800
X73200Y42600
X84000
X90000Y50400
X82800Y62400
X84000Y70200
X78000Y75000
X69000Y75600
X73200Y82200
X79200Y88200
X87000Y83400
X100200Y84600
X104400Y96000
X96000
X100800Y103800
X113400Y97200
X111600Y89400
X94800Y73800
X75000Y67800
X73800Y59400
X51600Y62400
X41400Y59400
X46800Y72600
X57000Y72000
X58200Y81000
X49200Y86400
X46200Y93600
Y98400
Y108000
X51600Y118800
Y126000
X28800Y125400
Y101400
X31500Y95570
X16800Y96000
X78600Y110400
X83400Y114600
X81600Y130200
X76800
X72600
X107400Y135000
X109800Y53400
T02
X120079Y5906
Y15905
Y25905
Y35906
Y45906
Y55905
Y65905
Y75906
Y85905
Y95906
Y105905
Y115905
Y125906
Y135906
Y145905
Y155905
Y165905
X5906
Y155905
Y145905
Y135906
Y125906
Y115905
Y105905
Y95906
Y85905
Y75906
M30
