G04*
G04 #@! TF.GenerationSoftware,Altium Limited,Altium Designer,20.1.8 (145)*
G04*
G04 Layer_Color=8388736*
%FSLAX25Y25*%
%MOIN*%
G70*
G04*
G04 #@! TF.SameCoordinates,B6191FBB-5C88-4D09-BA80-96395D220C01*
G04*
G04*
G04 #@! TF.FilePolarity,Negative*
G04*
G01*
G75*
%ADD23R,0.04300X0.04200*%
%ADD24R,0.02913X0.04882*%
%ADD25R,0.04200X0.04300*%
%ADD26R,0.04000X0.03800*%
%ADD27R,0.06312X0.05524*%
%ADD28R,0.06850X0.01929*%
%ADD29R,0.03800X0.04000*%
%ADD30R,0.04934X0.09461*%
%ADD31R,0.04737X0.04934*%
%ADD32C,0.06706*%
%ADD33R,0.06706X0.06706*%
D23*
X43307Y109349D02*
D03*
Y103249D02*
D03*
X41339Y95570D02*
D03*
Y89470D02*
D03*
X35433Y95570D02*
D03*
Y89470D02*
D03*
X27559Y95570D02*
D03*
Y89470D02*
D03*
X76772Y125097D02*
D03*
Y118997D02*
D03*
D24*
X35236Y103150D02*
D03*
X27756D02*
D03*
Y113386D02*
D03*
X31496D02*
D03*
X35236D02*
D03*
D25*
X28446Y122047D02*
D03*
X34546D02*
D03*
D26*
X100394Y125097D02*
D03*
Y118997D02*
D03*
X94488Y125097D02*
D03*
Y118997D02*
D03*
X88583D02*
D03*
Y125097D02*
D03*
D27*
X67323Y125787D02*
D03*
X58661D02*
D03*
X67323Y118307D02*
D03*
X58661D02*
D03*
D28*
X51968Y108071D02*
D03*
Y105512D02*
D03*
Y102953D02*
D03*
Y100394D02*
D03*
Y97835D02*
D03*
Y95276D02*
D03*
Y92716D02*
D03*
X74016Y92716D02*
D03*
Y95276D02*
D03*
Y97835D02*
D03*
Y100394D02*
D03*
Y102953D02*
D03*
Y105512D02*
D03*
Y108071D02*
D03*
D29*
X85533Y88583D02*
D03*
X91633D02*
D03*
X85533Y94488D02*
D03*
X91633D02*
D03*
X85533Y100394D02*
D03*
X91633D02*
D03*
D30*
X84547Y51181D02*
D03*
X72933D02*
D03*
X53051D02*
D03*
X41437D02*
D03*
D31*
X78740Y57185D02*
D03*
X47244D02*
D03*
D32*
X5906Y95906D02*
D03*
Y165905D02*
D03*
Y155905D02*
D03*
Y145905D02*
D03*
Y135906D02*
D03*
Y125906D02*
D03*
Y115905D02*
D03*
Y105905D02*
D03*
Y85905D02*
D03*
X120079Y165905D02*
D03*
Y5906D02*
D03*
Y15905D02*
D03*
Y25905D02*
D03*
Y35906D02*
D03*
Y45906D02*
D03*
Y55905D02*
D03*
Y65905D02*
D03*
Y75906D02*
D03*
Y85905D02*
D03*
Y95906D02*
D03*
Y105905D02*
D03*
Y115905D02*
D03*
Y125906D02*
D03*
Y135906D02*
D03*
Y145905D02*
D03*
Y155905D02*
D03*
D33*
X5906Y75906D02*
D03*
M02*
