G04*
G04 #@! TF.GenerationSoftware,Altium Limited,Altium Designer,20.1.8 (145)*
G04*
G04 Layer_Color=8421504*
%FSLAX25Y25*%
%MOIN*%
G70*
G04*
G04 #@! TF.SameCoordinates,B6191FBB-5C88-4D09-BA80-96395D220C01*
G04*
G04*
G04 #@! TF.FilePolarity,Positive*
G04*
G01*
G75*
%ADD14R,0.03500X0.03400*%
%ADD15R,0.02362X0.04331*%
%ADD16R,0.03400X0.03500*%
%ADD17R,0.03200X0.03000*%
%ADD18R,0.05512X0.04724*%
%ADD19R,0.05906X0.00984*%
%ADD20R,0.03000X0.03200*%
%ADD21R,0.04134X0.08661*%
%ADD22R,0.03937X0.04134*%
D14*
X43307Y109349D02*
D03*
Y103249D02*
D03*
X41339Y95570D02*
D03*
Y89470D02*
D03*
X35433Y95570D02*
D03*
Y89470D02*
D03*
X27559Y95570D02*
D03*
Y89470D02*
D03*
X76772Y125097D02*
D03*
Y118997D02*
D03*
D15*
X35236Y103150D02*
D03*
X27756D02*
D03*
Y113386D02*
D03*
X31496D02*
D03*
X35236D02*
D03*
D16*
X28446Y122047D02*
D03*
X34546D02*
D03*
D17*
X100394Y125097D02*
D03*
Y118997D02*
D03*
X94488Y125097D02*
D03*
Y118997D02*
D03*
X88583D02*
D03*
Y125097D02*
D03*
D18*
X67323Y125787D02*
D03*
X58661D02*
D03*
X67323Y118307D02*
D03*
X58661D02*
D03*
D19*
X51968Y108071D02*
D03*
Y105512D02*
D03*
Y102953D02*
D03*
Y100394D02*
D03*
Y97835D02*
D03*
Y95276D02*
D03*
Y92716D02*
D03*
X74016Y92716D02*
D03*
Y95276D02*
D03*
Y97835D02*
D03*
Y100394D02*
D03*
Y102953D02*
D03*
Y105512D02*
D03*
Y108071D02*
D03*
D20*
X85533Y88583D02*
D03*
X91633D02*
D03*
X85533Y94488D02*
D03*
X91633D02*
D03*
X85533Y100394D02*
D03*
X91633D02*
D03*
D21*
X84547Y51181D02*
D03*
X72933D02*
D03*
X53051D02*
D03*
X41437D02*
D03*
D22*
X78740Y57185D02*
D03*
X47244D02*
D03*
M02*
