G04*
G04 #@! TF.GenerationSoftware,Altium Limited,Altium Designer,20.1.8 (145)*
G04*
G04 Layer_Physical_Order=2*
G04 Layer_Color=16711680*
%FSLAX25Y25*%
%MOIN*%
G70*
G04*
G04 #@! TF.SameCoordinates,2668643E-6D20-44AD-B7F6-8DC4FF0AFFC9*
G04*
G04*
G04 #@! TF.FilePolarity,Positive*
G04*
G01*
G75*
%ADD37C,0.05906*%
%ADD38R,0.05906X0.05906*%
%ADD39C,0.02362*%
G36*
X115200Y35906D02*
X10800D01*
Y90600D01*
X1200D01*
Y100800D01*
X10800Y100800D01*
X10800Y145905D01*
X115200Y145905D01*
Y35906D01*
D02*
G37*
%LPC*%
G36*
X6406Y99625D02*
Y96406D01*
X9625D01*
X9562Y96885D01*
X9183Y97798D01*
X8582Y98582D01*
X7798Y99183D01*
X6885Y99562D01*
X6406Y99625D01*
D02*
G37*
G36*
X5406D02*
X4926Y99562D01*
X4013Y99183D01*
X3229Y98582D01*
X2627Y97798D01*
X2249Y96885D01*
X2186Y96406D01*
X5406D01*
Y99625D01*
D02*
G37*
G36*
Y95406D02*
X2186D01*
X2249Y94926D01*
X2627Y94013D01*
X3229Y93229D01*
X4013Y92628D01*
X4926Y92249D01*
X5406Y92186D01*
Y95406D01*
D02*
G37*
G36*
X9625D02*
X6406D01*
Y92186D01*
X6885Y92249D01*
X7798Y92628D01*
X8582Y93229D01*
X9183Y94013D01*
X9562Y94926D01*
X9625Y95406D01*
D02*
G37*
G36*
X71842Y110444D02*
X54142D01*
Y90344D01*
X71842D01*
Y110444D01*
D02*
G37*
G36*
X84646Y57087D02*
X72835D01*
Y45276D01*
X84646D01*
Y57087D01*
D02*
G37*
G36*
X53150D02*
X41339D01*
Y45276D01*
X53150D01*
Y57087D01*
D02*
G37*
%LPD*%
D37*
X5906Y95906D02*
D03*
Y165905D02*
D03*
Y155905D02*
D03*
Y145905D02*
D03*
Y135906D02*
D03*
Y125906D02*
D03*
Y115905D02*
D03*
Y105905D02*
D03*
Y85905D02*
D03*
X120079Y165905D02*
D03*
Y5906D02*
D03*
Y15905D02*
D03*
Y25905D02*
D03*
Y35906D02*
D03*
Y45906D02*
D03*
Y55905D02*
D03*
Y65905D02*
D03*
Y75906D02*
D03*
Y85905D02*
D03*
Y95906D02*
D03*
Y105905D02*
D03*
Y115905D02*
D03*
Y125906D02*
D03*
Y135906D02*
D03*
Y145905D02*
D03*
Y155905D02*
D03*
D38*
X5906Y75906D02*
D03*
D39*
X46800Y109800D02*
D03*
Y106200D02*
D03*
X27600Y118200D02*
D03*
X31200D02*
D03*
X24000D02*
D03*
X79200Y97800D02*
D03*
X38400Y99000D02*
D03*
X31200Y94200D02*
D03*
Y100200D02*
D03*
X46800Y113400D02*
D03*
X31200Y106200D02*
D03*
X58200Y81000D02*
D03*
X46200Y96600D02*
D03*
X16800Y96000D02*
D03*
X84000Y42600D02*
D03*
X73200D02*
D03*
X53400D02*
D03*
X41400D02*
D03*
X67200Y49800D02*
D03*
X58800Y52800D02*
D03*
X90000Y50400D02*
D03*
X35400Y49200D02*
D03*
X19800Y54000D02*
D03*
X109800Y53400D02*
D03*
X107400Y135000D02*
D03*
X73800Y59400D02*
D03*
X41400D02*
D03*
X51600Y62400D02*
D03*
X46200Y99600D02*
D03*
X79200Y88200D02*
D03*
X113400Y97200D02*
D03*
X100200Y103200D02*
D03*
X111600Y89400D02*
D03*
X104400Y96000D02*
D03*
X96000Y97200D02*
D03*
X100200Y84600D02*
D03*
X94800Y73800D02*
D03*
X84000Y70200D02*
D03*
X78000Y75000D02*
D03*
X75000Y67800D02*
D03*
X82800Y62400D02*
D03*
X69000Y75600D02*
D03*
X57000Y72000D02*
D03*
X46800Y72600D02*
D03*
X73200Y82200D02*
D03*
X87000Y83400D02*
D03*
X74400Y129600D02*
D03*
X80400D02*
D03*
X77400D02*
D03*
X53400Y124200D02*
D03*
Y127200D02*
D03*
M02*
