M48
;Layer_Color=9474304
;FILE_FORMAT=2:5
INCH,TZ
;TYPE=PLATED
T1F00S00C0.01181
T2F00S00C0.03543
%
T01
X41400Y42600
X53400
X58800Y52800
X67200Y49800
X73200Y42600
X84000
X90000Y50400
X105600Y48000
X99600Y60052
X96600Y71400
X92400Y78000
X87000Y83400
X79200Y88200
X81600Y97800
X80903Y105512
X76772Y114945
X77400Y129600
X74400
X80400
X53400Y127200
Y124200
X47400Y111000
X40200Y114000
X35236Y117717
X33216Y108071
X31496Y95570
X16800Y96000
X24000Y113400
Y122047
X46200Y99600
X46800Y72600
X57000Y72000
X58200Y81000
X69000Y75600
X78000Y75000
X75000Y67800
X73800Y59400
X82800Y62400
X84000Y70200
X73200Y82200
X96600Y88200
X96000Y97200
X104400Y96000
X106200Y102600
X113400Y97200
X111600Y89400
X104400Y81600
X107400Y135000
X36600Y78600
X41400Y59400
X51600Y62400
X25200Y63600
X35400Y49200
T02
X120079Y5906
Y15905
Y25905
Y35906
Y45906
Y55905
Y65905
Y75906
Y85905
Y95906
Y105905
Y115905
Y125906
Y135906
Y145905
Y155905
Y165905
X5906
Y155905
Y145905
Y135906
Y125906
Y115905
Y105905
Y95906
Y85905
Y75906
M30
