G04*
G04 #@! TF.GenerationSoftware,Altium Limited,Altium Designer,20.0.11 (256)*
G04*
G04 Layer_Color=65535*
%FSLAX25Y25*%
%MOIN*%
G70*
G01*
G75*
%ADD10C,0.00600*%
%ADD11C,0.00787*%
%ADD12C,0.01000*%
%ADD13C,0.00800*%
D10*
X71560Y130728D02*
X70960D01*
X71560D01*
X60142Y110944D02*
X60314Y109969D01*
X60809Y109112D01*
X61567Y108475D01*
X62497Y108137D01*
X63487D01*
X64417Y108475D01*
X65175Y109112D01*
X65670Y109969D01*
X65842Y110944D01*
X98294Y121708D02*
Y122386D01*
X102494Y121708D02*
Y122386D01*
X92388Y121708D02*
Y122386D01*
X96588Y121708D02*
Y122386D01*
X90683Y121708D02*
Y122386D01*
X86483Y121708D02*
Y122386D01*
X71260Y125591D02*
Y129134D01*
Y114961D02*
Y118504D01*
X54724Y125591D02*
Y129134D01*
Y114961D02*
Y118504D01*
X67126Y114961D02*
X71260D01*
X54724D02*
X58858D01*
X67126Y129134D02*
X71260D01*
X54724D02*
X58858D01*
X53642Y89844D02*
X72342D01*
X53642Y110944D02*
X60142D01*
X65842D02*
X72342D01*
X88244Y86483D02*
X88922D01*
X88244Y90683D02*
X88922D01*
X88244Y92388D02*
X88922D01*
X88244Y96588D02*
X88922D01*
X88244Y98294D02*
X88922D01*
X88244Y102494D02*
X88922D01*
X72335Y57587D02*
X75480D01*
X82000D02*
X85146D01*
X72335Y44776D02*
X85146D01*
X40839Y57587D02*
X43984D01*
X50504D02*
X53650D01*
X40839Y44776D02*
X53650D01*
D11*
X905Y78405D02*
Y170905D01*
Y70906D02*
Y78405D01*
Y70906D02*
X10905D01*
Y170905D01*
X905D02*
X10905D01*
X125079Y905D02*
Y163406D01*
Y170905D01*
X115079D02*
X125079D01*
X115079Y905D02*
Y170905D01*
Y905D02*
X125079D01*
D12*
X23884Y176827D02*
X23084Y177627D01*
X21485D01*
X20685Y176827D01*
Y176027D01*
X21485Y175227D01*
X23084D01*
X23884Y174428D01*
Y173628D01*
X23084Y172828D01*
X21485D01*
X20685Y173628D01*
X25484Y177627D02*
Y172828D01*
Y175227D01*
X28683D01*
Y177627D01*
Y172828D01*
X30282Y177627D02*
X31881D01*
X31082D01*
Y172828D01*
X30282D01*
X31881D01*
X37480Y177627D02*
X34281D01*
Y172828D01*
X37480D01*
X34281Y175227D02*
X35880D01*
X39079Y177627D02*
Y172828D01*
X42278D01*
X43878Y177627D02*
Y172828D01*
X46277D01*
X47076Y173628D01*
Y176827D01*
X46277Y177627D01*
X43878D01*
X23884Y168669D02*
X23084Y169468D01*
X21485D01*
X20685Y168669D01*
Y165470D01*
X21485Y164670D01*
X23084D01*
X23884Y165470D01*
X25484Y169468D02*
Y164670D01*
X28683D01*
X32681Y169468D02*
X31082D01*
X30282Y168669D01*
Y165470D01*
X31082Y164670D01*
X32681D01*
X33481Y165470D01*
Y168669D01*
X32681Y169468D01*
X38279Y168669D02*
X37480Y169468D01*
X35880D01*
X35080Y168669D01*
Y165470D01*
X35880Y164670D01*
X37480D01*
X38279Y165470D01*
X39879Y169468D02*
Y164670D01*
Y166269D01*
X43078Y169468D01*
X40679Y167069D01*
X43078Y164670D01*
X20685Y161310D02*
Y158111D01*
X22285Y156512D01*
X23884Y158111D01*
Y161310D01*
X25484Y156512D02*
X27083D01*
X26283D01*
Y161310D01*
X25484Y160511D01*
X29482Y156512D02*
Y157312D01*
X30282D01*
Y156512D01*
X29482D01*
X33481Y160511D02*
X34281Y161310D01*
X35880D01*
X36680Y160511D01*
Y157312D01*
X35880Y156512D01*
X34281D01*
X33481Y157312D01*
Y160511D01*
D13*
X97062Y86583D02*
Y90582D01*
X99061D01*
X99727Y89916D01*
Y88583D01*
X99061Y87916D01*
X97062D01*
X98394D02*
X99727Y86583D01*
X103726Y90582D02*
X102393Y89916D01*
X101060Y88583D01*
Y87250D01*
X101727Y86583D01*
X103059D01*
X103726Y87250D01*
Y87916D01*
X103059Y88583D01*
X101060D01*
X97062Y92489D02*
Y96487D01*
X99061D01*
X99727Y95821D01*
Y94488D01*
X99061Y93822D01*
X97062D01*
X98394D02*
X99727Y92489D01*
X103726Y96487D02*
X101060D01*
Y94488D01*
X102393Y95155D01*
X103059D01*
X103726Y94488D01*
Y93155D01*
X103059Y92489D01*
X101727D01*
X101060Y93155D01*
X46578Y41369D02*
X45245D01*
X45911D01*
Y38037D01*
X45245Y37371D01*
X44578D01*
X43912Y38037D01*
X50576Y37371D02*
X47911D01*
X50576Y40036D01*
Y40703D01*
X49910Y41369D01*
X48577D01*
X47911Y40703D01*
X78740Y41369D02*
X77407D01*
X78074D01*
Y38037D01*
X77407Y37371D01*
X76741D01*
X76074Y38037D01*
X80073Y37371D02*
X81406D01*
X80739D01*
Y41369D01*
X80073Y40703D01*
X59660Y86645D02*
Y83313D01*
X60326Y82646D01*
X61659D01*
X62326Y83313D01*
Y86645D01*
X66324Y82646D02*
X63659D01*
X66324Y85312D01*
Y85979D01*
X65658Y86645D01*
X64325D01*
X63659Y85979D01*
X54421Y135858D02*
Y132525D01*
X55087Y131859D01*
X56420D01*
X57087Y132525D01*
Y135858D01*
X58420Y131859D02*
X59752D01*
X59086D01*
Y135858D01*
X58420Y135191D01*
X97062Y98394D02*
Y102393D01*
X99061D01*
X99727Y101727D01*
Y100394D01*
X99061Y99727D01*
X97062D01*
X98394D02*
X99727Y98394D01*
X103059D02*
Y102393D01*
X101060Y100394D01*
X103726D01*
X102393Y130526D02*
X98394D01*
Y132525D01*
X99061Y133192D01*
X100394D01*
X101060Y132525D01*
Y130526D01*
Y131859D02*
X102393Y133192D01*
X99061Y134525D02*
X98394Y135191D01*
Y136524D01*
X99061Y137190D01*
X99727D01*
X100394Y136524D01*
Y135858D01*
Y136524D01*
X101060Y137190D01*
X101727D01*
X102393Y136524D01*
Y135191D01*
X101727Y134525D01*
X96487Y130526D02*
X92489D01*
Y132525D01*
X93155Y133192D01*
X94488D01*
X95155Y132525D01*
Y130526D01*
Y131859D02*
X96487Y133192D01*
Y137190D02*
Y134525D01*
X93822Y137190D01*
X93155D01*
X92489Y136524D01*
Y135191D01*
X93155Y134525D01*
X90582Y131193D02*
X86583D01*
Y133192D01*
X87250Y133858D01*
X88583D01*
X89249Y133192D01*
Y131193D01*
Y132525D02*
X90582Y133858D01*
Y135191D02*
Y136524D01*
Y135858D01*
X86583D01*
X87250Y135191D01*
X40006Y80042D02*
X39339Y79376D01*
Y78043D01*
X40006Y77376D01*
X42671D01*
X43338Y78043D01*
Y79376D01*
X42671Y80042D01*
X39339Y84041D02*
X40006Y82708D01*
X41339Y81375D01*
X42671D01*
X43338Y82042D01*
Y83375D01*
X42671Y84041D01*
X42005D01*
X41339Y83375D01*
Y81375D01*
X34100Y80042D02*
X33434Y79376D01*
Y78043D01*
X34100Y77376D01*
X36766D01*
X37432Y78043D01*
Y79376D01*
X36766Y80042D01*
X33434Y84041D02*
Y81375D01*
X35433D01*
X34767Y82708D01*
Y83375D01*
X35433Y84041D01*
X36766D01*
X37432Y83375D01*
Y82042D01*
X36766Y81375D01*
X40006Y115475D02*
X39339Y114809D01*
Y113476D01*
X40006Y112810D01*
X42671D01*
X43338Y113476D01*
Y114809D01*
X42671Y115475D01*
X43338Y118807D02*
X39339D01*
X41339Y116808D01*
Y119474D01*
X34100Y115475D02*
X33434Y114809D01*
Y113476D01*
X34100Y112810D01*
X36766D01*
X37432Y113476D01*
Y114809D01*
X36766Y115475D01*
X34100Y116808D02*
X33434Y117475D01*
Y118807D01*
X34100Y119474D01*
X34767D01*
X35433Y118807D01*
Y118141D01*
Y118807D01*
X36099Y119474D01*
X36766D01*
X37432Y118807D01*
Y117475D01*
X36766Y116808D01*
X26226Y80042D02*
X25560Y79376D01*
Y78043D01*
X26226Y77376D01*
X28892D01*
X29558Y78043D01*
Y79376D01*
X28892Y80042D01*
X29558Y84041D02*
Y81375D01*
X26893Y84041D01*
X26226D01*
X25560Y83375D01*
Y82042D01*
X26226Y81375D01*
X75439Y133858D02*
X74772Y133192D01*
Y131859D01*
X75439Y131193D01*
X78105D01*
X78771Y131859D01*
Y133192D01*
X78105Y133858D01*
X78771Y135191D02*
Y136524D01*
Y135858D01*
X74772D01*
X75439Y135191D01*
M02*
